<?xml version="1.0" encoding="UTF-8"?>
<svg id="Layer_1" data-name="Layer 1" xmlns="http://www.w3.org/2000/svg" width="39.51676" height="60.98588" viewBox="0 0 39.51676 60.98588">
  <defs>
    <style>
      .cls-1, .cls-2 {
        stroke-miterlimit: 10;
      }

      .cls-1, .cls-2, .cls-3 {
        fill: none;
      }

      .cls-1, .cls-2, .cls-3, .cls-4 {
        stroke-linecap: round;
        stroke-width: 1.7937px;
      }

      .cls-1, .cls-3, .cls-4 {
        stroke: #fbc540;
      }

      .cls-2 {
        stroke: #ffc800;
      }

      .cls-3, .cls-4 {
        stroke-linejoin: round;
      }

      .cls-4 {
        fill: #fbc540;
      }
    </style>
  </defs>
  <path class="cls-1" d="m.89685,10.12844c.07474-.0015.14948-.0015.22421-.0015,1.74139,0,3.43195.21973,5.04479.63527,7.39304,1.89385,13.15531,7.85642,14.76068,15.36156"/>
  <path class="cls-2" d="m.89685,50.63323c.07474.0015.14948.0015.22421.0015,9.72486,0,17.85033-6.85493,19.80546-15.99683"/>
  <path class="cls-4" d="m38.61991,30.38083l-8.84595,3.28845-8.84743,3.28845v-2.31986c.29446-1.37218.44843-2.79668.44843-4.25705s-.15396-2.88487-.44843-4.25706v-2.31985l8.84743,3.28845,8.84595,3.28845Z"/>
  <line class="cls-3" x1=".89685" y1="6.87586" x2=".89685" y2=".89685"/>
  <line class="cls-3" x1="12.04304" y1="9.71618" x2="15.0353" y2="4.53981"/>
  <line class="cls-3" x1="20.34614" y1="17.73339" x2="25.5273" y2="14.74942"/>
  <line class="cls-3" x1="23.16863" y1="30.08015" x2="29.14763" y2="30.08972"/>
  <line class="cls-3" x1=".89685" y1="54.11002" x2=".89685" y2="60.08903"/>
  <line class="cls-3" x1="12.04304" y1="51.2697" x2="15.0353" y2="56.44607"/>
  <line class="cls-3" x1="20.34614" y1="43.25249" x2="25.5273" y2="46.23646"/>
</svg>