<?xml version="1.0" encoding="UTF-8"?>
<svg id="Layer_1" data-name="Layer 1" xmlns="http://www.w3.org/2000/svg" width="200" height="200" viewBox="0 0 200 200">
  <defs>
    <style>
      .cls-1 {
        fill: #fbc540;
      }
    </style>
  </defs>
  <circle class="cls-1" cx="100" cy="100" r="100"/>
  <path d="m94.29703,145.62374c-1.58462-1.58197-2.37626-3.50605-2.37626-5.77093,0-2.17205.79165-4.04973,2.37626-5.63434,1.58197-1.58329,3.46229-2.37626,5.63434-2.37626,2.26289,0,4.18565.79297,5.77159,2.37626,1.58329,1.58462,2.37626,3.46229,2.37626,5.63434,0,2.26488-.79297,4.18896-2.37626,5.77093-1.58594,1.58594-3.5087,2.37626-5.77159,2.37626-2.17205,0-4.05238-.79032-5.63434-2.37626Zm2.37626-25.45997c-.81551-.72269-1.26902-1.67346-1.35787-2.85099l-2.44389-44.80955v-13.44339c0-1.98906.67893-3.66517,2.0368-5.02304s3.03133-2.0368,5.02304-2.0368c1.98972,0,3.64462.67893,4.9574,2.0368,1.31013,1.35787,1.96784,3.03398,1.96784,5.02304v13.44339l-2.44257,44.80955c-.09282,1.17752-.52246,2.12829-1.29156,2.85099-.7691.72667-1.83259,1.08735-3.19112,1.08735-1.35787,0-2.44389-.36068-3.25808-1.08735Z"/>
</svg>