<?xml version="1.0" encoding="UTF-8"?>
<svg id="Layer_1" data-name="Layer 1" xmlns="http://www.w3.org/2000/svg" width="584.99792" height="408" viewBox="0 0 584.99792 408">
  <defs>
    <style>
      .cls-1 {
        stroke: #ffc800;
      }

      .cls-1, .cls-2 {
        stroke-miterlimit: 10;
      }

      .cls-1, .cls-2, .cls-3 {
        fill: none;
      }

      .cls-1, .cls-2, .cls-3, .cls-4 {
        stroke-linecap: round;
        stroke-width: 12px;
      }

      .cls-5 {
        fill: #fff;
      }

      .cls-2, .cls-3, .cls-4 {
        stroke: #fbc540;
      }

      .cls-3, .cls-4 {
        stroke-linejoin: round;
      }

      .cls-4 {
        fill: #fbc540;
      }
    </style>
  </defs>
  <g>
    <path class="cls-5" d="m7.9375,233.41406c-1.05957-1.09961-1.58691-2.45508-1.58691-4.06445,0-.67676.20996-1.52344.63477-2.54004l32.38477-76.4541c.67676-1.52344,1.62891-2.77148,2.85742-3.74609,1.22656-.97266,2.73047-1.46094,4.50879-1.46094h1.26953c1.77832,0,3.28027.48828,4.50879,1.46094,1.22656.97461,2.17871,2.22266,2.85742,3.74609l32.38477,76.4541c.42285,1.0166.63574,1.86328.63574,2.54004,0,1.60938-.53027,2.96484-1.58789,4.06445-1.05957,1.09863-2.43457,1.65039-4.12793,1.65039-1.18652,0-2.26562-.31738-3.23828-.95215-.97363-.63477-1.71387-1.50195-2.22266-2.60352l-8.25488-19.8125H25.78125l-8.25488,19.8125c-.50781,1.10156-1.25,1.96875-2.22266,2.60352-.97461.63477-2.05371.95215-3.23828.95215-1.69531,0-3.07031-.55176-4.12793-1.65039Zm22.28906-32.25879h34.29004l-17.14551-41.27441-17.14453,41.27441Z"/>
    <path class="cls-5" d="m105.66309,233.41406c-1.10156-1.09961-1.65137-2.45508-1.65137-4.06445v-54.4834c0-1.60645.5498-2.98438,1.65137-4.12695,1.09863-1.14355,2.4541-1.71484,4.06348-1.71484,1.60742,0,2.98438.57129,4.12793,1.71484,1.14258,1.14258,1.71387,2.52051,1.71387,4.12695v5.20703c3.2168-3.55566,6.6875-6.3916,10.41406-8.50879,3.72461-2.11523,8.12793-3.1748,13.20801-3.1748,4.65527,0,8.7002,1.10156,12.12891,3.30176,3.42871,2.20312,6.05273,5.20703,7.87402,9.01758,1.81934,3.80957,2.73047,8.00098,2.73047,12.57227v36.06836c0,1.60938-.57129,2.96484-1.71484,4.06445-1.14258,1.09863-2.51953,1.65039-4.12695,1.65039-1.60938,0-2.96484-.55176-4.06445-1.65039-1.10156-1.09961-1.65039-2.45508-1.65039-4.06445v-34.79785c0-10.3291-4.6582-15.49414-13.9707-15.49414-4.23438,0-8.02246,1.10156-11.36621,3.30176-3.3457,2.20312-6.49902,5.16602-9.46191,8.89062v38.09961c0,1.60938-.57129,2.96484-1.71387,4.06445-1.14355,1.09863-2.52051,1.65039-4.12793,1.65039-1.60938,0-2.96484-.55176-4.06348-1.65039Z"/>
    <path class="cls-5" d="m187.51367,233.41406c-3.1748-1.52441-5.69531-3.74707-7.55664-6.66797-1.86328-2.9209-2.79395-6.28613-2.79395-10.09668,0-6.26465,2.47656-11.25879,7.42969-14.98535,4.95312-3.72461,12.21191-5.58789,21.78027-5.58789h15.36719v-1.0166c0-5.58789-1.37695-9.6084-4.12793-12.06445-2.75195-2.45508-7.04785-3.68359-12.89062-3.68359-3.21875,0-6.07617.25391-8.57227.76172-2.49805.50879-5.27051,1.27051-8.31836,2.28613-.67871.1709-1.22852.25391-1.65137.25391-1.26953,0-2.37109-.46387-3.30176-1.39648-.93262-.93066-1.39648-2.07422-1.39648-3.42871,0-2.28613,1.09863-3.89355,3.30176-4.82617,7.19531-3.04785,14.51953-4.57227,21.9707-4.57227,5.8418,0,10.77344,1.18652,14.7959,3.55566,4.02051,2.37207,6.98438,5.44141,8.88965,9.20801,1.90527,3.76855,2.85742,7.85449,2.85742,12.25488v35.94141c0,1.60938-.57129,2.96484-1.71387,4.06445-1.14355,1.09863-2.52051,1.65039-4.12793,1.65039-1.60938,0-2.96484-.55176-4.06445-1.65039-1.10059-1.09961-1.65039-2.45508-1.65039-4.06445v-3.30176c-6.2666,6.43555-14.22461,9.65137-23.87598,9.65137-3.72656,0-7.17578-.76172-10.35059-2.28516Zm25.46289-10.60449c3.4707-1.82031,6.39258-4.08398,8.76367-6.79492v-10.66797h-13.84277c-12.78613,0-19.17773,3.3457-19.17773,10.0332,0,3.04785,1.03613,5.50488,3.1123,7.36621,2.07324,1.86328,5.52441,2.79395,10.34961,2.79395,3.72461,0,7.32227-.90918,10.79492-2.73047Z"/>
    <path class="cls-5" d="m255.01465,218.93555v-39.37012h-9.0166c-.67871,0-1.25098-.23145-1.71484-.69824-.4668-.46387-.69824-1.03613-.69824-1.71484,0-.84473.38086-1.56543,1.14258-2.1582l17.27246-16.8916c.76172-.76172,1.47949-1.14258,2.1582-1.14258.67676,0,1.24902.25391,1.71484.76172.46484.50781.69824,1.10156.69824,1.77832v10.16016h14.35156c1.43848,0,2.62305.46582,3.55566,1.39648.93066.93262,1.39746,2.11719,1.39746,3.55566,0,1.35547-.4668,2.52051-1.39746,3.49316-.93262.97363-2.11719,1.45996-3.55566,1.45996h-14.35156v38.35449c0,3.30176.78223,5.39746,2.34961,6.28613,1.56543.88867,3.53418,1.33398,5.90527,1.33398,1.69336,0,3.38574-.25391,5.08008-.7627.33789-.08301.69922-.16797,1.08008-.25391.38086-.08301.86719-.12695,1.45996-.12695,1.18457,0,2.24316.44434,3.17578,1.33398.93066.88867,1.39648,1.96777,1.39648,3.23828,0,1.94824-.97461,3.42871-2.9209,4.44531-3.30176,1.52344-6.81641,2.28516-10.54102,2.28516-12.3623,0-18.54199-5.58789-18.54199-16.76367Z"/>
    <path class="cls-5" d="m310.25977,231.50879c-4.91113-2.79395-8.69922-6.75098-11.36621-11.875-2.66699-5.12109-4.00098-10.98535-4.00098-17.58887,0-6.60449,1.33398-12.46582,4.00098-17.58984,2.66699-5.12109,6.45508-9.08008,11.36621-11.87402,4.90918-2.79395,10.62402-4.19141,17.14453-4.19141,6.43359,0,12.10742,1.39746,17.01855,4.19141,4.9082,2.79395,8.71875,6.75293,11.42969,11.87402,2.70898,5.12402,4.06445,10.98535,4.06445,17.58984,0,6.60352-1.35547,12.46777-4.06445,17.58887-2.71094,5.12402-6.52148,9.08105-11.42969,11.875-4.91113,2.79395-10.58496,4.19043-17.01855,4.19043-6.52051,0-12.23535-1.39648-17.14453-4.19043Zm27.11426-8.7627c3.1748-1.60742,5.79883-4.14746,7.87402-7.62012,2.07422-3.4707,3.11133-7.87402,3.11133-13.20801,0-5.24902-1.03711-9.6084-3.11133-13.08105-2.0752-3.4707-4.69922-5.98926-7.87402-7.55664-3.1748-1.56543-6.49902-2.34961-9.96973-2.34961-3.55566,0-6.9209.78418-10.0957,2.34961-3.17578,1.56738-5.7793,4.08594-7.81055,7.55664-2.03223,3.47266-3.04883,7.83203-3.04883,13.08105,0,5.33398,1.0166,9.7373,3.04883,13.20801,2.03125,3.47266,4.63477,6.0127,7.81055,7.62012,3.1748,1.60938,6.54004,2.41211,10.0957,2.41211,3.4707,0,6.79492-.80273,9.96973-2.41211Z"/>
    <path class="cls-5" d="m377.69434,233.41406c-1.10059-1.09961-1.65039-2.45508-1.65039-4.06445v-82.42285c0-1.60742.5498-2.98438,1.65039-4.12793,1.09961-1.14258,2.45508-1.71387,4.06445-1.71387,1.69238,0,3.08984.55176,4.19141,1.65039,1.09863,1.10156,1.65039,2.49902,1.65039,4.19141v82.42285c0,1.60938-.57129,2.96484-1.71387,4.06445-1.14355,1.09863-2.52051,1.65039-4.12793,1.65039-1.60938,0-2.96484-.55176-4.06445-1.65039Z"/>
    <path class="cls-5" d="m408.55469,154.54688c-1.26953-1.27051-1.90527-2.79395-1.90527-4.57227v-.50781c0-1.77832.63574-3.30176,1.90527-4.57227,1.27051-1.26953,2.79395-1.90527,4.57227-1.90527h.76172c1.77832,0,3.30176.63574,4.57227,1.90527,1.26953,1.27051,1.90527,2.79395,1.90527,4.57227v.50781c0,1.77832-.63574,3.30176-1.90527,4.57227-1.27051,1.26953-2.79395,1.90527-4.57227,1.90527h-.76172c-1.77832,0-3.30176-.63574-4.57227-1.90527Zm.76172,78.86719c-1.10059-1.09961-1.65039-2.45508-1.65039-4.06445v-54.4834c0-1.60645.5498-2.98438,1.65039-4.12695,1.09961-1.14355,2.45508-1.71484,4.06445-1.71484,1.69238,0,3.08984.55176,4.19141,1.65137,1.09863,1.10156,1.65039,2.49805,1.65039,4.19043v54.4834c0,1.60938-.57129,2.96484-1.71387,4.06445-1.14355,1.09863-2.52051,1.65039-4.12793,1.65039-1.60938,0-2.96484-.55176-4.06445-1.65039Z"/>
  </g>
  <path class="cls-2" d="m326.62793,67.76c.5-.01,1-.01,1.5-.01,11.65,0,22.96,1.47,33.75,4.25,49.46,12.67,88.01,52.56,98.75,102.77"/>
  <path class="cls-1" d="m326.62793,338.74c.5.01,1,.01,1.5.01,65.06,0,119.42-45.86,132.5-107.02"/>
  <path class="cls-4" d="m578.99792,203.25l-59.18005,22-59.18994,22v-15.52002c1.96997-9.17999,3-18.71002,3-28.47998s-1.03003-19.29999-3-28.48004v-15.51996l59.18994,22,59.18005,22Z"/>
  <line class="cls-3" x1="326.62793" y1="46" x2="326.62793" y2="6"/>
  <line class="cls-3" x1="401.19675" y1="65.00197" x2="421.21522" y2="30.37163"/>
  <line class="cls-3" x1="456.74512" y1="118.6377" x2="491.40745" y2="98.67467"/>
  <line class="cls-3" x1="475.62774" y1="201.23843" x2="515.62769" y2="201.30244"/>
  <line class="cls-3" x1="326.62793" y1="362" x2="326.62793" y2="402"/>
  <line class="cls-3" x1="401.19675" y1="342.99803" x2="421.21522" y2="377.62837"/>
  <line class="cls-3" x1="456.74512" y1="289.3623" x2="491.40745" y2="309.32533"/>
</svg>