<?xml version="1.0" encoding="UTF-8"?>
<svg id="Layer_1" data-name="Layer 1" xmlns="http://www.w3.org/2000/svg" width="200" height="400" viewBox="0 0 200 400">
  <defs>
    <style>
      .cls-1 {
        fill: #fff;
      }
    </style>
  </defs>
  <rect width="200" height="400"/>
  <g>
    <path class="cls-1" d="m96.08789,182.31152h-9.21582l-14.92773-25.91992h-.19238c.06348,1.63184.13574,3.26465.21582,4.89648s.15137,3.26367.21582,4.89551v16.12793h-6.47949v-34.27148h9.16797l14.87988,25.67969h.14453c-.03223-1.59961-.08105-3.18359-.14453-4.75195-.06445-1.56738-.12793-3.13574-.19238-4.7041v-16.22363h6.52832v34.27148Z"/>
    <path class="cls-1" d="m135.83105,165.12793c0,3.55176-.58398,6.64746-1.75195,9.28809-1.16797,2.63965-2.95215,4.69629-5.35156,6.16797-2.40039,1.47168-5.47266,2.20801-9.2168,2.20801-3.71191,0-6.77539-.73633-9.19141-2.20801s-4.20801-3.53613-5.37598-6.19238c-1.16797-2.65527-1.75195-5.75977-1.75195-9.31152,0-3.55273.58398-6.63965,1.75195-9.26465,1.16797-2.62305,2.95996-4.66309,5.37598-6.12012,2.41602-1.45508,5.49609-2.18359,9.24023-2.18359,3.71094,0,6.76758.72852,9.16797,2.18359,2.39941,1.45703,4.18359,3.50488,5.35156,6.14453s1.75195,5.73633,1.75195,9.28809Zm-25.00781,0c0,3.58398.6875,6.4082,2.06445,8.47168,1.375,2.06445,3.58301,3.0957,6.62305,3.0957,3.10352,0,5.32812-1.03125,6.67285-3.0957,1.34375-2.06348,2.01562-4.8877,2.01562-8.47168,0-3.61621-.67188-6.44824-2.01562-8.49609-1.34473-2.04785-3.55273-3.07227-6.62402-3.07227-3.07227,0-5.29688,1.02441-6.67188,3.07227-1.37695,2.04785-2.06445,4.87988-2.06445,8.49609Z"/>
    <path class="cls-1" d="m51.28027,239.91211h-7.15234v-34.27246h19.63281v5.95215h-12.48047v8.83203h11.61621v5.95215h-11.61621v13.53613Z"/>
    <path class="cls-1" d="m70.48047,239.91211v-34.27246h7.24805v28.27246h13.91992v6h-21.16797Z"/>
    <path class="cls-1" d="m118.5752,239.91211l-2.49609-8.16016h-12.47949l-2.49609,8.16016h-7.82422l12.09668-34.41602h8.87988l12.14355,34.41602h-7.82422Zm-6.71973-22.22461c-.16016-.54297-.36816-1.23145-.62402-2.06348-.25684-.83203-.51172-1.67969-.76758-2.54395-.25684-.86426-.46484-1.61523-.62402-2.25586-.16113.64062-.37695,1.43262-.64844,2.37598-.27246.94434-.52832,1.83984-.76758,2.6875-.24023.84863-.4248,1.44824-.55273,1.7998l-2.44727,7.96875h8.92773l-2.49609-7.96875Z"/>
    <path class="cls-1" d="m142.76758,220.66406h13.58398v17.75977c-1.79297.6084-3.65625,1.08789-5.5918,1.44043-1.93652.35156-4.13672.52734-6.60059.52734-5.12012,0-9.05566-1.50391-11.80762-4.51172-2.75293-3.00781-4.12793-7.3916-4.12793-13.15234,0-3.58301.69629-6.6875,2.08789-9.31152s3.41504-4.65625,6.07227-6.0957c2.65527-1.44043,5.90332-2.16016,9.74414-2.16016,1.82324,0,3.61523.19141,5.37598.57617,1.75879.38379,3.35938.89551,4.7998,1.53516l-2.40039,5.80859c-1.05566-.54395-2.25586-.99219-3.59961-1.34375-1.34473-.35254-2.75293-.52832-4.22461-.52832-2.11133,0-3.94434.47949-5.49609,1.43945s-2.75195,2.3125-3.59961,4.05664c-.84863,1.74414-1.27148,3.7998-1.27148,6.16797,0,2.24023.30371,4.22363.91113,5.95215.60742,1.72754,1.56836,3.08008,2.88086,4.05566,1.31152.97656,3.02344,1.46387,5.13574,1.46387,1.02344,0,1.89551-.04785,2.61621-.14355.71973-.09668,1.38379-.20801,1.99121-.33594v-7.15234h-6.47949v-6.04785Z"/>
  </g>
</svg>